<svg width="21" height="20" viewBox="0 0 21 20" fill="none" xmlns="http://www.w3.org/2000/svg">
<path fill-rule="evenodd" clip-rule="evenodd" d="M0 2.61559C0 1.9219 0.275571 1.25661 0.76609 0.76609C1.25661 0.275571 1.9219 0 2.61559 0L18.3092 0C19.0029 0 19.6681 0.275571 20.1587 0.76609C20.6492 1.25661 20.9247 1.9219 20.9247 2.61559V13.078C20.9247 13.7717 20.6492 14.437 20.1587 14.9275C19.6681 15.418 19.0029 15.6936 18.3092 15.6936H5.77262C5.42579 15.6936 5.09321 15.8315 4.848 16.0767L1.11686 19.8079C1.02548 19.8995 0.908986 19.9619 0.78211 19.9873C0.655234 20.0127 0.523683 19.9998 0.404108 19.9504C0.284533 19.901 0.182309 19.8172 0.110374 19.7096C0.0384395 19.6021 2.74832e-05 19.4756 0 19.3462L0 2.61559ZM4.57729 3.92339C4.40386 3.92339 4.23754 3.99228 4.11491 4.11491C3.99228 4.23754 3.92339 4.40386 3.92339 4.57729C3.92339 4.75071 3.99228 4.91704 4.11491 5.03967C4.23754 5.16229 4.40386 5.23119 4.57729 5.23119H16.3475C16.5209 5.23119 16.6872 5.16229 16.8098 5.03967C16.9325 4.91704 17.0014 4.75071 17.0014 4.57729C17.0014 4.40386 16.9325 4.23754 16.8098 4.11491C16.6872 3.99228 16.5209 3.92339 16.3475 3.92339H4.57729ZM4.57729 7.19288C4.40386 7.19288 4.23754 7.26178 4.11491 7.38441C3.99228 7.50704 3.92339 7.67336 3.92339 7.84678C3.92339 8.02021 3.99228 8.18653 4.11491 8.30916C4.23754 8.43179 4.40386 8.50068 4.57729 8.50068H16.3475C16.5209 8.50068 16.6872 8.43179 16.8098 8.30916C16.9325 8.18653 17.0014 8.02021 17.0014 7.84678C17.0014 7.67336 16.9325 7.50704 16.8098 7.38441C16.6872 7.26178 16.5209 7.19288 16.3475 7.19288H4.57729ZM4.57729 10.4624C4.40386 10.4624 4.23754 10.5313 4.11491 10.6539C3.99228 10.7765 3.92339 10.9428 3.92339 11.1163C3.92339 11.2897 3.99228 11.456 4.11491 11.5787C4.23754 11.7013 4.40386 11.7702 4.57729 11.7702H11.1163C11.2897 11.7702 11.456 11.7013 11.5786 11.5787C11.7013 11.456 11.7702 11.2897 11.7702 11.1163C11.7702 10.9428 11.7013 10.7765 11.5786 10.6539C11.456 10.5313 11.2897 10.4624 11.1163 10.4624H4.57729Z" fill="white"/>
</svg>
