<svg width="1152" height="472" viewBox="0 0 1152 472" fill="none" xmlns="http://www.w3.org/2000/svg">
<path d="M-35.6798 470.485V471.165H-35L155.189 471.165L155.194 471.165C212.335 470.735 255.526 459.031 284.656 435.946L284.657 435.945C314.034 412.62 328.68 377.865 328.68 331.806C328.68 306.371 322.102 284.772 308.915 267.048C296.084 249.802 277.842 237.894 254.236 231.304C275.064 223.09 290.951 210.598 301.86 193.819C313.1 176.529 318.704 155.694 318.704 131.348C318.704 89.1068 302.846 56.8193 271.108 34.5847C239.622 12.3761 193.656 1.32022 133.306 1.32022H-35H-35.6798V2V470.485ZM187.919 102.927L187.926 102.932C199.066 111.339 204.711 125.253 204.711 144.862C204.711 161.877 199.506 174.64 189.186 183.274C178.859 191.913 161.468 196.415 136.843 196.63H78.6346V89.8772H133.306C158.573 89.8772 176.729 94.272 187.919 102.927Z" stroke="url(#paint0_linear)" stroke-width="1.35955"/>
<path d="M1178.68 470.485V471.165H1178L987.811 471.165L987.806 471.165C930.665 470.735 887.474 459.031 858.344 435.946L858.343 435.945C828.966 412.62 814.32 377.865 814.32 331.806C814.32 306.371 820.898 284.772 834.085 267.048C846.916 249.802 865.158 237.894 888.764 231.304C867.936 223.09 852.049 210.598 841.14 193.819C829.9 176.529 824.296 155.694 824.296 131.348C824.296 89.1068 840.154 56.8193 871.892 34.5847C903.378 12.3761 949.344 1.32022 1009.69 1.32022H1178H1178.68V2V470.485ZM955.081 102.927L955.074 102.932C943.934 111.339 938.289 125.253 938.289 144.862C938.289 161.877 943.494 174.64 953.814 183.274C964.141 191.913 981.532 196.415 1006.16 196.63H1064.37V89.8772H1009.69C984.427 89.8772 966.271 94.272 955.081 102.927Z" stroke="url(#paint1_linear)" stroke-width="1.35955"/>
<defs>
<linearGradient id="paint0_linear" x1="146.5" y1="2" x2="147.18" y2="390.831" gradientUnits="userSpaceOnUse">
<stop stop-color="white"/>
<stop offset="1" stop-color="white" stop-opacity="0"/>
</linearGradient>
<linearGradient id="paint1_linear" x1="996.5" y1="2" x2="995.82" y2="390.831" gradientUnits="userSpaceOnUse">
<stop stop-color="white"/>
<stop offset="1" stop-color="white" stop-opacity="0"/>
</linearGradient>
</defs>
</svg>
