<svg width="18" height="18" viewBox="0 0 18 18" fill="none" xmlns="http://www.w3.org/2000/svg">
<circle cx="9" cy="9" r="9" fill="#262145"/>
<g clip-path="url(#clip0)">
<path d="M10.8672 9.05899L14.7288 11.5002V6.51465L10.8672 9.05899Z" fill="white"/>
<path d="M3.27344 6.51465V11.5002L7.13505 9.05899L3.27344 6.51465Z" fill="white"/>
<path d="M14.0121 5.0625H3.98935C3.63212 5.0625 3.34862 5.32882 3.29492 5.67174L9.00072 9.43098L14.7065 5.67174C14.6528 5.32882 14.3693 5.0625 14.0121 5.0625Z" fill="white"/>
<path d="M10.2111 9.49144L9.19811 10.1587C9.13798 10.198 9.06997 10.2174 9.00124 10.2174C8.93251 10.2174 8.8645 10.198 8.80436 10.1587L7.79135 9.49072L3.29688 12.3336C3.352 12.6737 3.63407 12.9378 3.98987 12.9378H14.0126C14.3684 12.9378 14.6505 12.6737 14.7056 12.3336L10.2111 9.49144Z" fill="white"/>
</g>
<defs>
<clipPath id="clip0">
<rect width="11.4545" height="11.4545" fill="white" transform="translate(3.27344 3.27295)"/>
</clipPath>
</defs>
</svg>
