<svg width="36" height="36" viewBox="0 0 36 36" fill="none" xmlns="http://www.w3.org/2000/svg">
<path d="M6.44922 33.8602V0H18.6137C22.9709 0 26.2814 0.798443 28.5453 2.39533C30.8247 3.99221 31.9644 6.31002 31.9644 9.34876C31.9644 11.1007 31.5612 12.5968 30.7549 13.8371C29.9486 15.0774 28.7624 15.9921 27.1963 16.5813C28.9639 17.0464 30.3207 17.9146 31.2666 19.1859C32.2125 20.4572 32.6854 22.0076 32.6854 23.837C32.6854 27.1548 31.631 29.6509 29.5222 31.3253C27.4289 32.9842 24.3199 33.8292 20.1953 33.8602H6.44922ZM14.6131 14.1162H18.8695C20.6527 14.1007 21.9242 13.7751 22.684 13.1394C23.4438 12.5038 23.8237 11.5658 23.8237 10.3255C23.8237 8.89915 23.4128 7.8759 22.591 7.25575C21.7692 6.6201 20.4434 6.30227 18.6137 6.30227H14.6131V14.1162Z" fill="#FEDA52"/>
<mask id="mask0" mask-type="alpha" maskUnits="userSpaceOnUse" x="6" y="24" width="25" height="11">
<path d="M7.40527 24.4448L6.41992 25.4202V34.1192L29.501 33.8007L30.2873 31.0437L25.5098 27.7592L19.6077 25.4202L7.40527 24.4448Z" fill="#FF0606"/>
</mask>
<g mask="url(#mask0)">
<path d="M6.4502 33.8602V0H18.6147C22.9718 0 26.2824 0.798443 28.5463 2.39533C30.8256 3.99221 31.9653 6.31002 31.9653 9.34876C31.9653 11.1007 31.5622 12.5968 30.7559 13.8371C29.9496 15.0774 28.7633 15.9921 27.1972 16.5813C28.9649 17.0464 30.3217 17.9146 31.2676 19.1859C32.2134 20.4572 32.6864 22.0076 32.6864 23.837C32.6864 27.1548 31.632 29.6509 29.5231 31.3253C27.4298 32.9842 24.3209 33.8292 20.1963 33.8602H6.4502ZM14.6141 14.1162H18.8705C20.6537 14.1007 21.9252 13.7751 22.685 13.1394C23.4448 12.5038 23.8247 11.5658 23.8247 10.3255C23.8247 8.89915 23.4138 7.8759 22.5919 7.25575C21.7701 6.6201 20.4444 6.30227 18.6147 6.30227H14.6141V14.1162Z" fill="white"/>
</g>
<path d="M11.5078 27.3501L15.3674 19.0964L19.1768 20.8778C21.456 21.9436 22.4396 24.6552 21.3738 26.9344C20.308 29.2136 17.5964 30.1973 15.3172 29.1315L11.5078 27.3501Z" fill="#FEDA52"/>
<rect y="21.9688" width="1.60619" height="14.8062" rx="0.803096" transform="rotate(-64.9381 0 21.9688)" fill="#262145"/>
<rect x="1.58398" y="18.583" width="1.60619" height="14.8062" rx="0.803096" transform="rotate(-64.9381 1.58398 18.583)" fill="#262145"/>
<rect x="3.16699" y="15.1968" width="1.60619" height="14.8062" rx="0.803096" transform="rotate(-64.9381 3.16699 15.1968)" fill="#262145"/>
<rect x="1.18555" y="19.7573" width="1.60619" height="14.8062" rx="0.803096" transform="rotate(-64.9381 1.18555 19.7573)" fill="white"/>
<rect x="2.76855" y="16.3711" width="1.60619" height="14.8062" rx="0.803096" transform="rotate(-64.9381 2.76855 16.3711)" fill="white"/>
<path d="M11.5078 27.7881L15.3674 19.5344L19.1768 21.3158C21.456 22.3816 22.4396 25.0932 21.3738 27.3724C20.308 29.6516 17.5964 30.6352 15.3172 29.5694L11.5078 27.7881Z" fill="#262145"/>
<rect y="22.4067" width="1.60619" height="14.8062" rx="0.803096" transform="rotate(-64.9381 0 22.4067)" fill="#262145"/>
<rect x="1.58301" y="19.0205" width="1.60619" height="14.8062" rx="0.803096" transform="rotate(-64.9381 1.58301 19.0205)" fill="#262145"/>
<rect x="3.16699" y="15.6343" width="1.60619" height="14.8062" rx="0.803096" transform="rotate(-64.9381 3.16699 15.6343)" fill="#262145"/>
<path d="M11.9854 26.5542L15.845 18.3005L19.6543 20.0819C21.9335 21.1477 22.9172 23.8593 21.8514 26.1385C20.7856 28.4177 18.0739 29.4014 15.7947 28.3356L11.9854 26.5542Z" fill="white"/>
<rect x="0.478516" y="21.1729" width="1.60619" height="14.8062" rx="0.803096" transform="rotate(-64.9381 0.478516 21.1729)" fill="white"/>
<rect x="2.06055" y="17.7866" width="1.60619" height="14.8062" rx="0.803096" transform="rotate(-64.9381 2.06055 17.7866)" fill="white"/>
<rect x="17.5361" y="25.0234" width="1.60619" height="17.7265" rx="0.803096" transform="rotate(-64.9381 17.5361 25.0234)" fill="white"/>
<rect x="3.64453" y="14.4004" width="1.60619" height="14.8062" rx="0.803096" transform="rotate(-64.9381 3.64453 14.4004)" fill="white"/>
</svg>
