<svg width="339" height="472" viewBox="0 0 339 472" fill="none" xmlns="http://www.w3.org/2000/svg">
<path d="M365.68 470.485V471.165H365L174.811 471.165L174.806 471.165C117.665 470.735 74.4745 459.031 45.3437 435.946L45.3432 435.945C15.966 412.62 1.32022 377.865 1.32022 331.806C1.32022 306.371 7.89774 284.772 21.0849 267.048C33.9158 249.802 52.1581 237.894 75.7638 231.304C54.9359 223.09 39.0486 210.598 28.1402 193.819C16.9001 176.529 11.2963 155.694 11.2963 131.348C11.2963 89.1068 27.1543 56.8193 58.8918 34.5847C90.3778 12.3761 136.344 1.32022 196.694 1.32022H365H365.68V2V470.485ZM142.081 102.927L142.074 102.932C130.934 111.339 125.289 125.253 125.289 144.862C125.289 161.877 130.494 174.64 140.814 183.274C151.141 191.913 168.532 196.415 193.157 196.63H251.365V89.8772H196.694C171.427 89.8772 153.271 94.272 142.081 102.927Z" stroke="url(#paint0_linear)" stroke-width="1.35955"/>
<defs>
<linearGradient id="paint0_linear" x1="183.5" y1="2" x2="182.82" y2="390.831" gradientUnits="userSpaceOnUse">
<stop stop-color="white"/>
<stop offset="1" stop-color="white" stop-opacity="0"/>
</linearGradient>
</defs>
</svg>
