<svg width="205" height="472" viewBox="0 0 205 472" fill="none" xmlns="http://www.w3.org/2000/svg">
<path d="M-160.68 470.485V471.165H-160L30.1888 471.165L30.194 471.165C87.335 470.735 130.526 459.031 159.656 435.946L159.657 435.945C189.034 412.62 203.68 377.865 203.68 331.806C203.68 306.371 197.102 284.772 183.915 267.048C171.084 249.802 152.842 237.894 129.236 231.304C150.064 223.09 165.951 210.598 176.86 193.819C188.1 176.529 193.704 155.694 193.704 131.348C193.704 89.1068 177.846 56.8193 146.108 34.5847C114.622 12.3761 68.6561 1.32022 8.30586 1.32022H-160H-160.68V2V470.485ZM62.9192 102.927L62.9256 102.932C74.0664 111.339 79.7112 125.253 79.7112 144.862C79.7112 161.877 74.5064 174.64 64.1862 183.274C53.8595 191.913 36.468 196.415 11.8434 196.63H-46.3654V89.8772H8.30586C33.5731 89.8772 51.729 94.272 62.9192 102.927Z" stroke="url(#paint0_linear)" stroke-width="1.35955"/>
<defs>
<linearGradient id="paint0_linear" x1="21.5" y1="2" x2="22.1798" y2="390.831" gradientUnits="userSpaceOnUse">
<stop stop-color="white"/>
<stop offset="1" stop-color="white" stop-opacity="0"/>
</linearGradient>
</defs>
</svg>
