<svg width="375" height="949" viewBox="0 0 375 949" fill="none" xmlns="http://www.w3.org/2000/svg">
<path d="M-160.68 470.485V471.165H-160L30.1888 471.165L30.194 471.165C87.335 470.735 130.526 459.031 159.656 435.946L159.657 435.945C189.034 412.62 203.68 377.865 203.68 331.806C203.68 306.371 197.102 284.772 183.915 267.048C171.084 249.802 152.842 237.894 129.236 231.304C150.064 223.09 165.951 210.598 176.86 193.819C188.1 176.529 193.704 155.694 193.704 131.348C193.704 89.1068 177.846 56.8193 146.108 34.5847C114.622 12.3761 68.6561 1.32022 8.30586 1.32022H-160H-160.68V2V470.485ZM62.9192 102.927L62.9256 102.932C74.0664 111.339 79.7112 125.253 79.7112 144.862C79.7112 161.877 74.5064 174.64 64.1862 183.274C53.8595 191.913 36.468 196.415 11.8434 196.63H-46.3654V89.8772H8.30586C33.5731 89.8772 51.729 94.272 62.9192 102.927Z" stroke="url(#paint0_linear)" stroke-width="1.35955"/>
<path d="M546.68 947V947.68H546L341.141 947.68L341.136 947.68C279.593 947.218 233.085 934.628 201.72 909.802L201.719 909.802C170.092 884.72 154.32 847.347 154.32 797.808C154.32 770.454 161.403 747.229 175.599 728.171C189.439 709.593 209.127 696.774 234.616 689.695C212.12 680.863 194.969 667.412 183.201 649.332C171.1 630.742 165.066 608.338 165.066 582.154C165.066 536.726 182.14 502.007 216.309 478.098C250.211 454.214 299.711 442.32 364.712 442.32H546H546.68V443V947ZM305.854 551.538L305.847 551.543C293.829 560.6 287.746 575.587 287.746 596.692C287.746 615.007 293.356 628.754 304.487 638.055C315.625 647.362 334.373 652.205 360.901 652.436H423.653V537.487H364.712C337.492 537.487 317.921 542.216 305.854 551.538Z" stroke="url(#paint1_linear)" stroke-width="1.35955"/>
<defs>
<linearGradient id="paint0_linear" x1="21.5" y1="2" x2="22.1798" y2="390.831" gradientUnits="userSpaceOnUse">
<stop stop-color="white"/>
<stop offset="1" stop-color="white" stop-opacity="0"/>
</linearGradient>
<linearGradient id="paint1_linear" x1="350.5" y1="443" x2="349.77" y2="861.308" gradientUnits="userSpaceOnUse">
<stop stop-color="white"/>
<stop offset="1" stop-color="white" stop-opacity="0"/>
</linearGradient>
</defs>
</svg>
