<svg width="11" height="10" viewBox="0 0 11 10" fill="none" xmlns="http://www.w3.org/2000/svg">
<path fill-rule="evenodd" clip-rule="evenodd" d="M10.0384 1.21239C9.94912 1.12342 9.84281 1.05336 9.72583 1.00641C9.60884 0.959466 9.48359 0.936592 9.35756 0.939159C9.23154 0.941727 9.10732 0.969682 8.99235 1.02136C8.87738 1.07303 8.774 1.14736 8.68841 1.23989L4.34716 6.77114L1.73091 4.15364C1.55319 3.98804 1.31813 3.89789 1.07526 3.90218C0.832382 3.90646 0.60065 4.00485 0.428884 4.17662C0.257118 4.34838 0.158728 4.58012 0.154443 4.82299C0.150158 5.06587 0.240311 5.30093 0.405911 5.47864L3.71341 8.78739C3.80251 8.87633 3.90862 8.94642 4.02539 8.99346C4.14217 9.04051 4.26722 9.06355 4.39309 9.06122C4.51897 9.05888 4.64308 9.03122 4.75803 8.97988C4.87298 8.92854 4.97642 8.85458 5.06216 8.7624L10.0522 2.52489C10.2223 2.34802 10.3163 2.11149 10.3139 1.86609C10.3116 1.6207 10.2131 1.386 10.0397 1.21239H10.0384Z" fill="white"/>
</svg>
