<svg width="19" height="19" viewBox="0 0 19 19" fill="none" xmlns="http://www.w3.org/2000/svg">
<circle cx="9.5" cy="9.5" r="9.5" fill="#062241"/>
<path fill-rule="evenodd" clip-rule="evenodd" d="M9.50119 10.6974L11.7205 12.9697C11.9432 13.1994 12.088 13.2018 12.3148 12.9697L12.76 12.5137C12.9782 12.2904 12.993 12.1439 12.76 11.9054L10.4104 9.5L12.7603 7.09465C12.9803 6.86857 12.9846 6.716 12.7603 6.48607L12.315 6.03029C12.084 5.79372 11.9413 5.80465 11.7208 6.03029L9.50119 8.30257L7.28183 6.0305C7.06133 5.80486 6.91862 5.79393 6.68762 6.0305L6.24233 6.48629C6.01776 6.71622 6.02183 6.86879 6.24233 7.09486L8.59198 9.5L6.24233 11.9054C6.0094 12.1439 6.02183 12.2904 6.24233 12.5137L6.6874 12.9697C6.91219 13.2018 7.05705 13.1994 7.28162 12.9697L9.50119 10.6974Z" fill="white"/>
</svg>
