<svg width="577" height="691" viewBox="0 0 577 691" fill="none" xmlns="http://www.w3.org/2000/svg">
<rect x="0.6875" y="70.7305" width="535" height="621" rx="20" transform="rotate(-3.8636 0.6875 70.7305)" fill="url(#paint0_linear)"/>
<rect x="0.5" y="32.5" width="534" height="620" rx="19.5" fill="#D4BD7D" stroke="#262145"/>
<path d="M505.516 48.6824L498.675 59.2449L499.403 62.6996L502.848 61.9619L509.686 51.4059C508.215 50.6278 506.819 49.7161 505.516 48.6824ZM534.48 44.9936C534.525 44.8994 534.555 44.7954 534.597 44.6946C534.769 44.3144 534.922 43.9341 535.045 43.5344C535.065 43.4629 535.075 43.3914 535.097 43.3264C535.224 42.8896 535.331 42.4471 535.416 42.0004V41.9321C536.05 38.1329 534.945 33.8949 532.416 30.0664L536.024 24.4959C540.18 25.0256 543.775 23.9791 545.504 21.3044C548.504 16.6796 544.854 8.98039 537.363 4.10214C529.865 -0.779359 521.363 -0.984109 518.37 3.63414C516.634 6.31214 517.141 10.0269 519.322 13.6214L515.708 19.1919C511.194 18.4346 506.881 19.1399 503.673 21.2719C503.654 21.2784 503.631 21.2849 503.618 21.2979C503.243 21.5527 502.883 21.8283 502.539 22.1234C502.484 22.1689 502.419 22.2111 502.373 22.2566C502.061 22.5324 501.767 22.8276 501.492 23.1406C501.427 23.2186 501.336 23.2869 501.275 23.3681C500.929 23.7601 500.613 24.1785 500.332 24.6194C495.834 31.5516 499.672 42.0426 508.889 48.0486C518.113 54.0546 529.234 53.2941 533.723 46.3619C534.005 45.9231 534.265 45.4649 534.48 44.9936ZM531.831 12.6301C528.948 10.7549 527.541 7.79739 528.695 6.01314C529.845 4.23539 533.118 4.31664 535.994 6.19189C538.884 8.06714 540.278 11.0311 539.131 12.8089C537.983 14.5866 534.717 14.5054 531.831 12.6301Z" fill="url(#paint1_linear)"/>
<path d="M505.516 75.0173L498.675 64.4548L499.403 61.0001L502.848 61.7378L509.686 72.2938C508.215 73.072 506.819 73.9836 505.516 75.0173ZM534.48 78.7061C534.525 78.8003 534.555 78.9043 534.597 79.0051C534.769 79.3853 534.922 79.7656 535.045 80.1653C535.065 80.2368 535.075 80.3083 535.097 80.3733C535.224 80.8101 535.331 81.2526 535.416 81.6993V81.7676C536.05 85.5668 534.945 89.8048 532.416 93.6333L536.024 99.2038C540.18 98.6741 543.775 99.7206 545.504 102.395C548.504 107.02 544.854 114.719 537.363 119.598C529.865 124.479 521.363 124.684 518.37 120.066C516.634 117.388 517.141 113.673 519.322 110.078L515.708 104.508C511.194 105.265 506.881 104.56 503.673 102.428C503.654 102.421 503.631 102.415 503.618 102.402C503.243 102.147 502.883 101.871 502.539 101.576C502.484 101.531 502.419 101.489 502.373 101.443C502.061 101.167 501.767 100.872 501.492 100.559C501.427 100.481 501.336 100.413 501.275 100.332C500.929 99.9396 500.613 99.5212 500.332 99.0803C495.834 92.1481 499.672 81.6571 508.889 75.6511C518.113 69.6451 529.234 70.4056 533.723 77.3378C534.005 77.7766 534.265 78.2348 534.48 78.7061ZM531.831 111.07C528.948 112.945 527.541 115.902 528.695 117.687C529.845 119.464 533.118 119.383 535.994 117.508C538.884 115.633 540.278 112.669 539.131 110.891C537.983 109.113 534.717 109.194 531.831 111.07Z" fill="url(#paint2_linear)"/>
<defs>
<linearGradient id="paint0_linear" x1="268.187" y1="70.7305" x2="262.517" y2="747.18" gradientUnits="userSpaceOnUse">
<stop stop-color="#262145"/>
<stop offset="1" stop-color="#262145" stop-opacity="0"/>
</linearGradient>
<linearGradient id="paint1_linear" x1="504" y1="58" x2="567" y2="-16.5" gradientUnits="userSpaceOnUse">
<stop stop-color="#262145"/>
<stop offset="1" stop-color="#D4BD7D"/>
</linearGradient>
<linearGradient id="paint2_linear" x1="495.5" y1="58" x2="506.5" y2="74.5" gradientUnits="userSpaceOnUse">
<stop stop-color="#262145"/>
<stop offset="1" stop-color="#262145" stop-opacity="0"/>
</linearGradient>
</defs>
</svg>
