<svg width="77" height="75" viewBox="0 0 77 75" fill="none" xmlns="http://www.w3.org/2000/svg">
<path d="M70.0217 7.83317V6.97817H69.1667H32.9143C32.8035 5.00346 32.3111 3.06719 31.4834 1.2715H69.1667C70.9069 1.2715 72.5759 1.96282 73.8065 3.19337C75.037 4.42392 75.7283 6.09291 75.7283 7.83317V48.6248C75.7283 50.3651 75.037 52.0341 73.8065 53.2646C72.5759 54.4952 70.9069 55.1865 69.1667 55.1865H36.6467V49.4798H69.1667H70.0217V48.6248V7.83317ZM6.125 44.0615H1.4175V26.3748C1.4175 24.6346 2.10882 22.9656 3.33937 21.735C4.56992 20.5045 6.2389 19.8132 7.97917 19.8132H49.77V25.5198H28.375H27.52V26.3748V73.7282H21.8133V52.3332V51.4782H20.9583H13.5417H12.6867V52.3332V73.7282H6.98V44.9165V44.0615H6.125ZM23.8117 7.83317C23.8117 9.57343 23.1204 11.2424 21.8898 12.473C20.6592 13.7035 18.9903 14.3948 17.25 14.3948C15.5097 14.3948 13.8408 13.7035 12.6102 12.473C11.3797 11.2424 10.6883 9.57343 10.6883 7.83317C10.6883 6.09291 11.3797 4.42392 12.6102 3.19337C13.8408 1.96282 15.5097 1.2715 17.25 1.2715C18.9903 1.2715 20.6592 1.96282 21.8898 3.19337C23.1204 4.42392 23.8117 6.09291 23.8117 7.83317Z" stroke="#D4BD7D" stroke-width="1.71"/>
</svg>
