<svg width="22" height="22" viewBox="0 0 22 22" fill="none" xmlns="http://www.w3.org/2000/svg">
<path d="M22 11.0681C22 4.95368 17.0727 0 11 0C4.92319 0 0 4.95368 0 11.0681C0 16.5911 4.02119 21.1706 9.28125 22V14.2682H6.48794V11.0688H9.28125V8.629C9.28125 5.85574 10.9209 4.32418 13.4344 4.32418C14.6383 4.32418 15.8984 4.54001 15.8984 4.54001V7.26347H14.509C13.145 7.26347 12.7188 8.11779 12.7188 8.99286V11.0681H15.7692L15.279 14.2675H12.7188V21.9993C17.9747 21.1699 22 16.5904 22 11.0674V11.0681Z" fill="#262145"/>
</svg>
