<svg width="16" height="13" viewBox="0 0 16 13" fill="none" xmlns="http://www.w3.org/2000/svg">
<path fill-rule="evenodd" clip-rule="evenodd" d="M0.5 6.99992C0.632608 6.99992 0.759785 7.0526 0.853553 7.14637C0.947322 7.24014 1 7.36731 1 7.49992V10.9999C1 11.2651 1.10536 11.5195 1.29289 11.707C1.48043 11.8946 1.73478 11.9999 2 11.9999H14C14.2652 11.9999 14.5196 11.8946 14.7071 11.707C14.8946 11.5195 15 11.2651 15 10.9999V7.49992C15 7.36731 15.0527 7.24014 15.1464 7.14637C15.2402 7.0526 15.3674 6.99992 15.5 6.99992C15.6326 6.99992 15.7598 7.0526 15.8536 7.14637C15.9473 7.24014 16 7.36731 16 7.49992V10.9999C16 11.5304 15.7893 12.0391 15.4142 12.4141C15.0391 12.7892 14.5304 12.9999 14 12.9999H2C1.46957 12.9999 0.960859 12.7892 0.585786 12.4141C0.210714 12.0391 0 11.5304 0 10.9999V7.49992C0 7.36731 0.0526784 7.24014 0.146447 7.14637C0.240215 7.0526 0.367392 6.99992 0.5 6.99992ZM5 3.85392C5.09376 3.94766 5.22092 4.00031 5.3535 4.00031C5.48608 4.00031 5.61324 3.94766 5.707 3.85392L8 1.55992L10.293 3.85292C10.3391 3.90068 10.3943 3.93877 10.4553 3.96497C10.5163 3.99118 10.5819 4.00497 10.6483 4.00555C10.7147 4.00612 10.7805 3.99347 10.842 3.96833C10.9034 3.94319 10.9593 3.90606 11.0062 3.85912C11.0531 3.81217 11.0903 3.75635 11.1154 3.6949C11.1406 3.63345 11.1532 3.56761 11.1526 3.50122C11.152 3.43483 11.1383 3.36922 11.1121 3.30822C11.0858 3.24722 11.0478 3.19204 11 3.14592L8.354 0.499921C8.30755 0.453358 8.25238 0.416415 8.19163 0.391209C8.13089 0.366002 8.06577 0.353027 8 0.353027C7.93423 0.353027 7.86911 0.366002 7.80837 0.391209C7.74762 0.416415 7.69245 0.453358 7.646 0.499921L5 3.14592C4.95344 3.19237 4.91649 3.24754 4.89129 3.30829C4.86608 3.36903 4.85311 3.43415 4.85311 3.49992C4.85311 3.56569 4.86608 3.63081 4.89129 3.69155C4.91649 3.7523 4.95344 3.80748 5 3.85392Z" fill="black"/>
<path fill-rule="evenodd" clip-rule="evenodd" d="M8 1C8.13261 1 8.25979 1.05268 8.35355 1.14645C8.44732 1.24021 8.5 1.36739 8.5 1.5V9.5C8.5 9.63261 8.44732 9.75979 8.35355 9.85355C8.25979 9.94732 8.13261 10 8 10C7.86739 10 7.74021 9.94732 7.64645 9.85355C7.55268 9.75979 7.5 9.63261 7.5 9.5V1.5C7.5 1.36739 7.55268 1.24021 7.64645 1.14645C7.74021 1.05268 7.86739 1 8 1Z" fill="black"/>
</svg>
