<?xml version="1.0" encoding="utf-8"?>
<!-- Generator: Adobe Illustrator 24.2.3, SVG Export Plug-In . SVG Version: 6.00 Build 0)  -->
<svg version="1.1" id="Layer_1" xmlns="http://www.w3.org/2000/svg" xmlns:xlink="http://www.w3.org/1999/xlink" x="0px" y="0px"
	 viewBox="0 0 18 18" style="enable-background:new 0 0 18 18;" xml:space="preserve">
<style type="text/css">
	.st0{fill:#FFFFFF;}
</style>
<path class="st0" d="M9,0C4,0,0,4,0,9s4,9,9,9s9-4,9-9S14,0,9,0z M4,5.1h10c0.4,0,0.6,0.3,0.7,0.6L9,9.4L3.3,5.7
	C3.3,5.3,3.6,5.1,4,5.1z M3.3,6.5l3.9,2.5l-3.9,2.4V6.5z M14,12.9H4c-0.4,0-0.6-0.3-0.7-0.6l4.5-2.8l1,0.7c0.1,0,0.1,0.1,0.2,0.1
	s0.1,0,0.2-0.1l1-0.7l4.5,2.8C14.7,12.7,14.4,12.9,14,12.9z M14.7,11.5l-3.9-2.4l3.9-2.5V11.5z"/>
</svg>
