<?xml version="1.0" encoding="utf-8"?>
<!-- Generator: Adobe Illustrator 24.2.3, SVG Export Plug-In . SVG Version: 6.00 Build 0)  -->
<svg version="1.1" id="Layer_1" xmlns="http://www.w3.org/2000/svg" xmlns:xlink="http://www.w3.org/1999/xlink" x="0px" y="0px"
	 viewBox="0 0 18 18" style="enable-background:new 0 0 18 18;" xml:space="preserve">
<style type="text/css">
	.st0{fill:#262145;}
</style>
<path class="st0" d="M9,0C4,0,0,4,0,9s4,9,9,9s9-4,9-9S14,0,9,0z M15.1,8.5c0,0.1,0,0.2,0,0.4c-0.1,0.5-0.2,0.9-0.5,1.3
	c-0.1,0.2-0.6,0.9-0.8,1.1c-0.9,1.1-2.3,2.3-4.8,3.5c-0.2,0.1-0.5-0.1-0.5-0.3l0.1-1.1c0-0.2-0.1-0.3-0.3-0.4
	c-2.9-0.3-5.1-2.3-5.1-4.7c0-2.6,2.6-4.7,5.9-4.7c3.2,0,5.8,2,5.9,4.5C15.1,8.1,15.1,8.4,15.1,8.5z M7.1,9.5c0,0.2-0.1,0.3-0.3,0.3
	H5.6c-0.2,0-0.3-0.1-0.3-0.3V7.3C5.3,7.1,5.5,7,5.6,7s0.3,0.1,0.3,0.3v2h0.9C7,9.2,7.1,9.4,7.1,9.5z M8,7.2v2.4
	c0,0.1-0.1,0.2-0.2,0.2H7.7c-0.1,0-0.2-0.1-0.2-0.2V7.2C7.4,7.1,7.5,7,7.7,7h0.1C7.9,7,8,7.1,8,7.2z M10.8,7.3v2.3
	c0,0.2-0.1,0.3-0.3,0.3c-0.1,0-0.2,0-0.2-0.1c0,0-1.2-1.6-1.2-1.6v1.4c0,0.2-0.1,0.3-0.3,0.3S8.5,9.7,8.5,9.5V7.3
	C8.5,7.1,8.6,7,8.8,7C8.9,7,9,7,9,7.1c0,0,1.2,1.6,1.2,1.6V7.3c0-0.2,0.1-0.3,0.3-0.3C10.7,7,10.8,7.1,10.8,7.3z M11.9,7.6v0.5h0.9
	c0.2,0,0.3,0.1,0.3,0.3S13,8.7,12.8,8.7h-0.9v0.5h0.9c0.2,0,0.3,0.1,0.3,0.3S13,9.8,12.8,9.8h-1.2c-0.2,0-0.3-0.1-0.3-0.3V7.3
	c0-0.2,0.1-0.3,0.3-0.3h1.2c0.2,0,0.3,0.1,0.3,0.3S13,7.6,12.8,7.6H11.9z"/>
</svg>
