<svg width="21" height="21" viewBox="0 0 21 21" fill="none" xmlns="http://www.w3.org/2000/svg">
<path fill-rule="evenodd" clip-rule="evenodd" d="M10.5 19.6875C12.9367 19.6875 15.2736 18.7195 16.9965 16.9965C18.7195 15.2736 19.6875 12.9367 19.6875 10.5C19.6875 8.06332 18.7195 5.72645 16.9965 4.00346C15.2736 2.28047 12.9367 1.3125 10.5 1.3125C8.06332 1.3125 5.72645 2.28047 4.00346 4.00346C2.28047 5.72645 1.3125 8.06332 1.3125 10.5C1.3125 12.9367 2.28047 15.2736 4.00346 16.9965C5.72645 18.7195 8.06332 19.6875 10.5 19.6875ZM10.5 21C13.2848 21 15.9555 19.8938 17.9246 17.9246C19.8938 15.9555 21 13.2848 21 10.5C21 7.71523 19.8938 5.04451 17.9246 3.07538C15.9555 1.10625 13.2848 0 10.5 0C7.71523 0 5.04451 1.10625 3.07538 3.07538C1.10625 5.04451 0 7.71523 0 10.5C0 13.2848 1.10625 15.9555 3.07538 17.9246C5.04451 19.8938 7.71523 21 10.5 21Z" fill="black"/>
<path d="M11.7206 8.64697L8.71494 9.02366L8.60731 9.52241L9.19794 9.63135C9.58381 9.72322 9.65994 9.86235 9.57594 10.2469L8.60731 14.7987C8.35269 15.976 8.74512 16.5298 9.66781 16.5298C10.3831 16.5298 11.2139 16.1991 11.5906 15.745L11.7061 15.199C11.4436 15.43 11.0604 15.5218 10.8057 15.5218C10.4448 15.5218 10.3136 15.2685 10.4067 14.8223L11.7206 8.64697Z" fill="black"/>
<path d="M10.5 7.21875C11.2249 7.21875 11.8125 6.63112 11.8125 5.90625C11.8125 5.18138 11.2249 4.59375 10.5 4.59375C9.77513 4.59375 9.1875 5.18138 9.1875 5.90625C9.1875 6.63112 9.77513 7.21875 10.5 7.21875Z" fill="black"/>
</svg>
