<svg width="13" height="13" viewBox="0 0 13 13" fill="none" xmlns="http://www.w3.org/2000/svg">
<path d="M12.5003 6H7.00033V0.5C7.00033 0.367392 6.94765 0.240215 6.85388 0.146447C6.76011 0.0526785 6.63294 0 6.50033 0C6.36772 0 6.24054 0.0526785 6.14677 0.146447C6.05301 0.240215 6.00033 0.367392 6.00033 0.5V6H0.500328C0.367719 6 0.240543 6.05268 0.146774 6.14645C0.0530062 6.24021 0.000327641 6.36739 0.000327641 6.5C-0.00213967 6.56498 0.00935104 6.62974 0.0340252 6.68991C0.0586995 6.75007 0.0959838 6.80425 0.143366 6.84879C0.190748 6.89333 0.247127 6.92719 0.308703 6.9481C0.370279 6.96901 0.435622 6.97648 0.500328 6.97H6.00033V12.5C6.00033 12.6326 6.05301 12.7598 6.14677 12.8536C6.24054 12.9473 6.36772 13 6.50033 13C6.63294 13 6.76011 12.9473 6.85388 12.8536C6.94765 12.7598 7.00033 12.6326 7.00033 12.5V7H12.5003C12.6329 7 12.7601 6.94732 12.8539 6.85355C12.9476 6.75979 13.0003 6.63261 13.0003 6.5C13.0003 6.36739 12.9476 6.24021 12.8539 6.14645C12.7601 6.05268 12.6329 6 12.5003 6Z" fill="black"/>
</svg>
