<svg width="18" height="18" viewBox="0 0 18 18" fill="none" xmlns="http://www.w3.org/2000/svg">
<path d="M9 0C4.02975 0 0 4.02975 0 9C0 13.9703 4.02975 18 9 18C13.9703 18 18 13.9703 18 9C18 4.02975 13.9703 0 9 0ZM13.5 14.0625C8.22713 14.0625 3.9375 9.77287 3.9375 4.5C3.9375 4.1895 4.1895 3.9375 4.5 3.9375H6.57675C6.88725 3.9375 7.13925 4.1895 7.13925 4.5C7.13925 5.472 7.35075 6.39788 7.76813 7.25063C7.8345 7.38563 7.8435 7.53975 7.794 7.6815C7.74563 7.82325 7.64212 7.93912 7.50712 8.00437L6.66788 8.40938C7.3665 9.6255 8.3745 10.6346 9.5895 11.331L9.9945 10.4929C10.0597 10.3579 10.1756 10.2555 10.3174 10.206C10.4591 10.1576 10.6144 10.1666 10.7483 10.2319C11.6032 10.6493 12.528 10.8608 13.4989 10.8608C13.8094 10.8608 14.0614 11.1128 14.0614 11.4233V13.5H14.0625C14.0625 13.8105 13.8105 14.0625 13.5 14.0625Z" fill="#262145"/>
</svg>
