<svg width="18" height="18" viewBox="0 0 18 18" fill="none" xmlns="http://www.w3.org/2000/svg">
<circle cx="9" cy="9" r="9" fill="#262145"/>
<path d="M15.0493 8.89079C15.0765 8.74768 15.0899 8.62727 15.0961 8.53282C15.1063 8.37695 15.0947 8.14553 15.0905 8.07307C14.947 5.57593 12.3562 3.58643 9.18122 3.58643C5.9141 3.58643 3.26562 5.69304 3.26562 8.29168C3.26562 10.6802 5.50315 12.653 8.40194 12.9565C8.57917 12.975 8.70696 13.135 8.68731 13.3121L8.56389 14.423C8.53587 14.6752 8.79662 14.8586 9.02513 14.7483C11.4742 13.5664 12.9387 12.3504 13.8133 11.2969C13.9724 11.1052 14.4913 10.3782 14.5971 10.1872C14.8217 9.78185 14.9765 9.34653 15.0493 8.89079Z" fill="white"/>
<path d="M5.92942 9.245V7.26305C5.92942 7.09593 5.79394 6.96045 5.62682 6.96045C5.4597 6.96045 5.32422 7.09593 5.32422 7.26305V9.5476C5.32422 9.71472 5.4597 9.8502 5.62682 9.8502H6.83719C7.00431 9.8502 7.13979 9.71472 7.13979 9.5476C7.13979 9.38048 7.00431 9.245 6.83719 9.245H5.92942Z" fill="#262145"/>
<path d="M7.79453 9.8502H7.66224C7.53165 9.8502 7.42578 9.74434 7.42578 9.61375V7.19691C7.42578 7.06632 7.53165 6.96045 7.66224 6.96045H7.79453C7.92512 6.96045 8.03098 7.06632 8.03098 7.19691V9.61375C8.03098 9.74434 7.92512 9.8502 7.79453 9.8502Z" fill="#262145"/>
<path d="M10.2413 7.26306V8.65871C10.2413 8.65871 9.03287 7.08246 9.01443 7.06175C8.95669 6.99695 8.8716 6.95709 8.77715 6.96067C8.61255 6.96691 8.48633 7.11077 8.48633 7.27547V9.54758C8.48633 9.7147 8.62181 9.85018 8.78893 9.85018C8.95605 9.85018 9.09153 9.7147 9.09153 9.54758V8.1604C9.09153 8.1604 10.3184 9.75038 10.3364 9.76747C10.3899 9.81812 10.4618 9.84947 10.5411 9.85018C10.7092 9.8517 10.8465 9.70306 10.8465 9.53502V7.26306C10.8465 7.09594 10.711 6.96046 10.5439 6.96046C10.3768 6.96049 10.2413 7.09594 10.2413 7.26306Z" fill="#262145"/>
<path d="M13.1144 7.26305C13.1144 7.09593 12.9789 6.96045 12.8118 6.96045H11.6014C11.4343 6.96045 11.2988 7.09593 11.2988 7.26305V9.5476C11.2988 9.71472 11.4343 9.8502 11.6014 9.8502H12.8118C12.9789 9.8502 13.1144 9.71472 13.1144 9.5476C13.1144 9.38048 12.9789 9.245 12.8118 9.245H11.904V8.70789H12.8118C12.9789 8.70789 13.1144 8.57241 13.1144 8.40529C13.1144 8.23817 12.9789 8.10269 12.8118 8.10269H11.904V7.56558H12.8118C12.9789 7.56565 13.1144 7.43017 13.1144 7.26305Z" fill="#262145"/>
</svg>
