<svg width="19" height="19" viewBox="0 0 19 19" fill="none" xmlns="http://www.w3.org/2000/svg">
<path d="M2.04557 16.9539C2.49011 17.3991 3.01825 17.752 3.59962 17.9925C4.18099 18.2329 4.80415 18.3561 5.43328 18.355C6.06255 18.3561 6.68584 18.2329 7.26736 17.9924C7.84888 17.752 8.37719 17.3991 8.82194 16.9539L11.5321 14.2428L10.177 12.8877L7.46686 15.5988C6.92681 16.1364 6.1958 16.4383 5.43376 16.4383C4.67172 16.4383 3.9407 16.1364 3.40065 15.5988C2.86255 15.059 2.56039 14.3279 2.56039 13.5657C2.56039 12.8035 2.86255 12.0724 3.40065 11.5326L6.11178 8.82243L4.75669 7.46735L2.04557 10.1775C1.14838 11.0769 0.644531 12.2954 0.644531 13.5657C0.644531 14.8361 1.14838 16.0545 2.04557 16.9539V16.9539ZM16.9534 8.82243C17.8501 7.92283 18.3536 6.70444 18.3536 5.43425C18.3536 4.16405 17.8501 2.94566 16.9534 2.04606C16.054 1.14887 14.8356 0.64502 13.5652 0.64502C12.2949 0.64502 11.0764 1.14887 10.177 2.04606L7.46686 4.75718L8.82194 6.11227L11.5321 3.40114C12.0722 2.86351 12.8032 2.56167 13.5652 2.56167C14.3273 2.56167 15.0583 2.86351 15.5983 3.40114C16.1364 3.94094 16.4386 4.67205 16.4386 5.43425C16.4386 6.19644 16.1364 6.92755 15.5983 7.46735L12.8872 10.1775L14.2423 11.5326L16.9534 8.82243Z" fill="#262145"/>
<path d="M6.1119 14.2438L4.75586 12.8888L12.8892 4.75635L14.2443 6.11239L6.1119 14.2438Z" fill="#262145"/>
</svg>
