<svg width="109" height="38" viewBox="0 0 109 38" fill="none" xmlns="http://www.w3.org/2000/svg">
<path d="M44.584 17.16C43.8693 17.16 43.32 16.9947 42.936 16.664C42.552 16.3227 42.36 15.8053 42.36 15.112V8.232H44.76V14.824C44.76 15.2187 44.9467 15.416 45.32 15.416C45.48 15.416 45.6613 15.3787 45.864 15.304L46.088 16.84C45.6827 17.0533 45.1813 17.16 44.584 17.16ZM48.2504 17L46.7304 8.232H49.0664L49.4984 11.32C49.5304 11.576 49.5677 11.928 49.6104 12.376C49.6637 12.8133 49.7117 13.3253 49.7544 13.912H49.8024C49.941 13.3253 50.0637 12.8133 50.1704 12.376C50.2877 11.928 50.3837 11.56 50.4584 11.272L51.3224 8.232H52.7784L53.6424 11.272C53.7277 11.56 53.8237 11.928 53.9304 12.376C54.037 12.8133 54.1597 13.3253 54.2984 13.912H54.3464C54.3997 13.3253 54.4424 12.8133 54.4744 12.376C54.517 11.928 54.5597 11.576 54.6024 11.32L55.0504 8.232H57.3704L55.8664 17H53.5144L52.5064 13.432C52.3997 13.016 52.3144 12.6373 52.2504 12.296C52.197 11.944 52.1437 11.5867 52.0904 11.224H52.0264C51.9624 11.5867 51.8984 11.9333 51.8344 12.264C51.781 12.5947 51.6904 12.984 51.5624 13.432L50.5384 17H48.2504ZM49.424 7.016V6.008L51.04 5.336H52.784V4.232H54.304V5.336H55.248V4.232H56.752V7.016H49.424ZM53.8907 3.384V0.407999H55.9707V3.384H53.8907ZM62.4674 17.208C61.166 17.208 60.2007 16.8933 59.5714 16.264C58.942 15.624 58.6274 14.68 58.6274 13.432C58.6274 13.2187 58.6327 12.9627 58.6434 12.664C58.6647 12.3547 58.6914 12.0827 58.7234 11.848H62.5634V13.368H60.9794V13.592C60.9794 14.232 61.0967 14.7013 61.3314 15C61.5767 15.288 61.95 15.432 62.4514 15.432C62.9847 15.432 63.4007 15.2453 63.6994 14.872C63.998 14.488 64.1474 13.7947 64.1474 12.792C64.1474 11.8427 63.982 11.1333 63.6514 10.664C63.3207 10.184 62.7127 9.944 61.8274 9.944C61.3474 9.944 60.8514 10.0187 60.3394 10.168C59.8274 10.3173 59.406 10.4827 59.0754 10.664V8.664C59.4167 8.48267 59.886 8.33333 60.4834 8.216C61.0914 8.088 61.6887 8.024 62.2754 8.024C63.31 8.024 64.142 8.216 64.7714 8.6C65.4114 8.97333 65.8754 9.50667 66.1634 10.2C66.462 10.8933 66.6114 11.7147 66.6114 12.664C66.6114 14.1147 66.286 15.2347 65.6354 16.024C64.9847 16.8133 63.9287 17.208 62.4674 17.208ZM71.4557 17.16C70.4851 17.16 69.7438 16.8773 69.2318 16.312C68.7198 15.7467 68.4638 14.9147 68.4638 13.816V8.232H70.8638V13.4C70.8638 13.9867 70.9811 14.4133 71.2158 14.68C71.4504 14.9467 71.7918 15.08 72.2398 15.08C72.8051 15.08 73.2424 14.8667 73.5518 14.44C73.8611 14.0027 74.0158 13.3307 74.0158 12.424V8.232H76.4158V17H74.5918L74.3358 15.656H74.1918C74.0104 16.0827 73.6958 16.44 73.2478 16.728C72.8104 17.016 72.2131 17.16 71.4557 17.16ZM81.2715 17.16C80.5568 17.16 80.0075 16.9947 79.6235 16.664C79.2395 16.3227 79.0475 15.8053 79.0475 15.112V8.232H81.4475V14.824C81.4475 15.2187 81.6342 15.416 82.0075 15.416C82.1675 15.416 82.3488 15.3787 82.5515 15.304L82.7755 16.84C82.3702 17.0533 81.8688 17.16 81.2715 17.16ZM86.0875 17.16C85.3728 17.16 84.8235 16.9947 84.4395 16.664C84.0555 16.3227 83.8635 15.8053 83.8635 15.112V8.232H86.2635V14.824C86.2635 15.2187 86.4502 15.416 86.8235 15.416C86.9835 15.416 87.1648 15.3787 87.3675 15.304L87.5915 16.84C87.1862 17.0533 86.6848 17.16 86.0875 17.16ZM89.1851 17V8.232H90.9451L91.2651 9.608H91.3931C91.5745 9.17067 91.8891 8.808 92.3371 8.52C92.7851 8.22133 93.3665 8.072 94.0811 8.072C96.1185 8.072 97.1371 9.16533 97.1371 11.352V17H94.7371V11.832C94.7371 11.2347 94.6145 10.808 94.3691 10.552C94.1345 10.2853 93.7878 10.152 93.3291 10.152C92.7745 10.152 92.3425 10.376 92.0331 10.824C91.7345 11.272 91.5851 11.9333 91.5851 12.808V17H89.1851ZM91.9352 7.032V6.232C92.0846 6.18933 92.2499 6.13067 92.4312 6.056C92.6126 5.98133 92.7726 5.88 92.9112 5.752C93.0499 5.624 93.1192 5.464 93.1192 5.272C93.1192 5.12267 93.0766 5.00533 92.9912 4.92C92.9059 4.83467 92.7992 4.792 92.6712 4.792C92.5859 4.792 92.4952 4.808 92.3992 4.84C92.3032 4.872 92.2179 4.904 92.1432 4.936L91.8392 3.864C92.0526 3.68267 92.3192 3.56533 92.6392 3.512C92.9486 3.448 93.2099 3.416 93.4232 3.416C93.9032 3.416 94.2819 3.528 94.5592 3.752C94.8259 3.976 94.9592 4.30667 94.9592 4.744C94.9592 5.02133 94.8792 5.26667 94.7192 5.48H97.1672V7.032H91.9352ZM45.128 35.208C44.4987 35.208 43.864 35.1387 43.224 35C42.5947 34.8613 42.0347 34.664 41.544 34.408L42.216 32.504C42.536 32.6747 42.9467 32.856 43.448 33.048C43.9493 33.2293 44.4773 33.32 45.032 33.32C45.896 33.32 46.328 33.0693 46.328 32.568C46.328 32.2907 46.1627 32.0773 45.832 31.928C45.512 31.768 45.064 31.5867 44.488 31.384C43.9227 31.1813 43.4373 30.9627 43.032 30.728C42.6267 30.4933 42.312 30.2053 42.088 29.864C41.8747 29.5227 41.768 29.096 41.768 28.584C41.768 27.7093 42.0933 27.064 42.744 26.648C43.4053 26.232 44.2853 26.024 45.384 26.024C45.9813 26.024 46.52 26.072 47 26.168C47.48 26.264 47.8533 26.3867 48.12 26.536V28.424C47.8427 28.296 47.4533 28.1733 46.952 28.056C46.4507 27.928 45.9653 27.864 45.496 27.864C44.6107 27.864 44.168 28.088 44.168 28.536C44.168 28.792 44.3387 28.9947 44.68 29.144C45.032 29.2827 45.5227 29.4587 46.152 29.672C46.984 29.96 47.6187 30.3067 48.056 30.712C48.504 31.1067 48.728 31.6827 48.728 32.44C48.728 32.92 48.616 33.3733 48.392 33.8C48.1787 34.216 47.8107 34.5573 47.288 34.824C46.7653 35.08 46.0453 35.208 45.128 35.208ZM43.3727 25.032V24.232C43.5221 24.1893 43.6874 24.1307 43.8687 24.056C44.0501 23.9813 44.2101 23.88 44.3487 23.752C44.4874 23.624 44.5567 23.464 44.5567 23.272C44.5567 23.1227 44.5141 23.0053 44.4287 22.92C44.3434 22.8347 44.2367 22.792 44.1087 22.792C44.0234 22.792 43.9327 22.808 43.8367 22.84C43.7407 22.872 43.6554 22.904 43.5807 22.936L43.2767 21.864C43.4901 21.6827 43.7567 21.5653 44.0767 21.512C44.3861 21.448 44.6474 21.416 44.8607 21.416C45.3407 21.416 45.7194 21.528 45.9967 21.752C46.2634 21.976 46.3967 22.3067 46.3967 22.744C46.3967 23.0213 46.3167 23.2667 46.1567 23.48H48.6047V25.032H43.3727ZM52.7213 35V29.208C52.7213 28.76 52.6146 28.4347 52.4013 28.232C52.1986 28.0293 51.8626 27.928 51.3932 27.928C51.0413 27.928 50.7159 27.976 50.4173 28.072C50.1293 28.168 49.8573 28.2853 49.6013 28.424V26.504C49.8359 26.3973 50.1666 26.2907 50.5933 26.184C51.0199 26.0773 51.5213 26.024 52.0973 26.024C52.6839 26.024 53.2013 26.1093 53.6493 26.28C54.1079 26.4507 54.4653 26.7387 54.7213 27.144C54.9879 27.5387 55.1213 28.0827 55.1213 28.776V35H52.7213ZM60.3464 35.16C59.3757 35.16 58.6344 34.8773 58.1224 34.312C57.6104 33.7467 57.3544 32.9147 57.3544 31.816V26.232H59.7544V31.4C59.7544 31.9867 59.8717 32.4133 60.1064 32.68C60.341 32.9467 60.6824 33.08 61.1304 33.08C61.6957 33.08 62.133 32.8667 62.4424 32.44C62.7517 32.0027 62.9064 31.3307 62.9064 30.424V26.232H65.3064V35H63.4824L63.2264 33.656H63.0824C62.901 34.0827 62.5864 34.44 62.1384 34.728C61.701 35.016 61.1037 35.16 60.3464 35.16ZM71.1861 35.208C69.8848 35.208 68.9195 34.8933 68.2901 34.264C67.6608 33.624 67.3461 32.68 67.3461 31.432C67.3461 31.2187 67.3515 30.9627 67.3621 30.664C67.3835 30.3547 67.4101 30.0827 67.4421 29.848H71.2821V31.368H69.6981V31.592C69.6981 32.232 69.8155 32.7013 70.0501 33C70.2955 33.288 70.6688 33.432 71.1701 33.432C71.7035 33.432 72.1195 33.2453 72.4181 32.872C72.7168 32.488 72.8661 31.7947 72.8661 30.792C72.8661 29.8427 72.7008 29.1333 72.3701 28.664C72.0395 28.184 71.4315 27.944 70.5461 27.944C70.0661 27.944 69.5701 28.0187 69.0581 28.168C68.5461 28.3173 68.1248 28.4827 67.7941 28.664V26.664C68.1355 26.4827 68.6048 26.3333 69.2021 26.216C69.8101 26.088 70.4075 26.024 70.9941 26.024C72.0288 26.024 72.8608 26.216 73.4901 26.6C74.1301 26.9733 74.5941 27.5067 74.8821 28.2C75.1808 28.8933 75.3301 29.7147 75.3301 30.664C75.3301 32.1147 75.0048 33.2347 74.3541 34.024C73.7035 34.8133 72.6475 35.208 71.1861 35.208ZM79.5025 35V29.208C79.5025 28.76 79.3958 28.4347 79.1825 28.232C78.9798 28.0293 78.6438 27.928 78.1745 27.928C77.8225 27.928 77.4972 27.976 77.1985 28.072C76.9105 28.168 76.6385 28.2853 76.3825 28.424V26.504C76.6172 26.3973 76.9478 26.2907 77.3745 26.184C77.8012 26.0773 78.3025 26.024 78.8785 26.024C79.4652 26.024 79.9825 26.1093 80.4305 26.28C80.8892 26.4507 81.2465 26.7387 81.5025 27.144C81.7692 27.5387 81.9025 28.0827 81.9025 28.776V35H79.5025ZM84.2796 35V26.232H86.6476V29.512H86.7116L89.4316 26.232H92.0716V26.312L89.7516 28.888C90.509 29.0053 91.0796 29.3253 91.4636 29.848C91.8476 30.3707 92.0396 31 92.0396 31.736V35H89.6396V32.104C89.6396 31.624 89.5223 31.2613 89.2876 31.016C89.053 30.76 88.7116 30.6 88.2636 30.536L86.6476 32.328V35H84.2796ZM96.4088 35V29.208C96.4088 28.76 96.3021 28.4347 96.0888 28.232C95.8861 28.0293 95.5501 27.928 95.0807 27.928C94.7288 27.928 94.4034 27.976 94.1048 28.072C93.8168 28.168 93.5448 28.2853 93.2888 28.424V26.504C93.5234 26.3973 93.8541 26.2907 94.2808 26.184C94.7074 26.0773 95.2088 26.024 95.7848 26.024C96.3714 26.024 96.8888 26.1093 97.3368 26.28C97.7954 26.4507 98.1528 26.7387 98.4088 27.144C98.6754 27.5387 98.8088 28.0827 98.8088 28.776V35H96.4088ZM104.05 35.208C103.421 35.208 102.786 35.1387 102.146 35C101.517 34.8613 100.957 34.664 100.466 34.408L101.138 32.504C101.458 32.6747 101.869 32.856 102.37 33.048C102.871 33.2293 103.399 33.32 103.954 33.32C104.818 33.32 105.25 33.0693 105.25 32.568C105.25 32.2907 105.085 32.0773 104.754 31.928C104.434 31.768 103.986 31.5867 103.41 31.384C102.845 31.1813 102.359 30.9627 101.954 30.728C101.549 30.4933 101.234 30.2053 101.01 29.864C100.797 29.5227 100.69 29.096 100.69 28.584C100.69 27.7093 101.015 27.064 101.666 26.648C102.327 26.232 103.207 26.024 104.306 26.024C104.903 26.024 105.442 26.072 105.922 26.168C106.402 26.264 106.775 26.3867 107.042 26.536V28.424C106.765 28.296 106.375 28.1733 105.874 28.056C105.373 27.928 104.887 27.864 104.418 27.864C103.533 27.864 103.09 28.088 103.09 28.536C103.09 28.792 103.261 28.9947 103.602 29.144C103.954 29.2827 104.445 29.4587 105.074 29.672C105.906 29.96 106.541 30.3067 106.978 30.712C107.426 31.1067 107.65 31.6827 107.65 32.44C107.65 32.92 107.538 33.3733 107.314 33.8C107.101 34.216 106.733 34.5573 106.21 34.824C105.687 35.08 104.967 35.208 104.05 35.208Z" fill="#19181F"/>
<path d="M6.44922 35.8602V2H18.6137C22.9709 2 26.2814 2.79844 28.5453 4.39533C30.8247 5.99221 31.9644 8.31002 31.9644 11.3488C31.9644 13.1007 31.5612 14.5968 30.7549 15.8371C29.9486 17.0774 28.7624 17.9921 27.1963 18.5813C28.9639 19.0464 30.3207 19.9146 31.2666 21.1859C32.2125 22.4572 32.6854 24.0076 32.6854 25.837C32.6854 29.1548 31.631 31.6509 29.5222 33.3253C27.4288 34.9842 24.3199 35.8292 20.1953 35.8602H6.44922ZM14.6131 16.1162H18.8695C20.6527 16.1007 21.9242 15.7751 22.684 15.1394C23.4438 14.5038 23.8237 13.5658 23.8237 12.3255C23.8237 10.8992 23.4128 9.8759 22.591 9.25575C21.7692 8.6201 20.4434 8.30227 18.6137 8.30227H14.6131V16.1162Z" fill="#FEDA52"/>
<mask id="mask0" mask-type="alpha" maskUnits="userSpaceOnUse" x="6" y="26" width="25" height="11">
<path d="M7.40506 26.4446L6.41971 27.42V36.1189L29.5008 35.8005L30.2871 33.0435L25.5096 29.759L19.6075 27.42L7.40506 26.4446Z" fill="#FF0606"/>
</mask>
<g mask="url(#mask0)">
<path d="M6.44991 35.8602V2H18.6144C22.9716 2 26.2821 2.79844 28.546 4.39533C30.8254 5.99221 31.965 8.31002 31.965 11.3488C31.965 13.1007 31.5619 14.5968 30.7556 15.8371C29.9493 17.0774 28.7631 17.9921 27.1969 18.5813C28.9646 19.0464 30.3214 19.9146 31.2673 21.1859C32.2131 22.4572 32.6861 24.0076 32.6861 25.837C32.6861 29.1548 31.6317 31.6509 29.5229 33.3253C27.4295 34.9842 24.3206 35.8292 20.196 35.8602H6.44991ZM14.6138 16.1162H18.8702C20.6534 16.1007 21.9249 15.7751 22.6847 15.1394C23.4445 14.5038 23.8244 13.5658 23.8244 12.3255C23.8244 10.8992 23.4135 9.8759 22.5917 9.25575C21.7698 8.6201 20.4441 8.30227 18.6144 8.30227H14.6138V16.1162Z" fill="#19181F"/>
</g>
<path d="M11.508 29.3503L15.3676 21.0967L19.177 22.878C21.4561 23.9438 22.4398 26.6555 21.374 28.9346V28.9346C20.3082 31.2138 17.5965 32.1975 15.3174 31.1317L11.508 29.3503Z" fill="#FEDA52"/>
<rect y="23.969" width="1.60619" height="14.8062" rx="0.803096" transform="rotate(-64.9381 0 23.969)" fill="#262145"/>
<rect x="1.58386" y="20.583" width="1.60619" height="14.8062" rx="0.803096" transform="rotate(-64.9381 1.58386 20.583)" fill="#262145"/>
<rect x="3.16731" y="17.1969" width="1.60619" height="14.8062" rx="0.803096" transform="rotate(-64.9381 3.16731 17.1969)" fill="#262145"/>
<rect x="1.18549" y="21.7574" width="1.60619" height="14.8062" rx="0.803096" transform="rotate(-64.9381 1.18549 21.7574)" fill="white"/>
<rect x="2.76872" y="18.3712" width="1.60619" height="14.8062" rx="0.803096" transform="rotate(-64.9381 2.76872 18.3712)" fill="white"/>
<path d="M11.5076 29.7881L15.3672 21.5344L19.1765 23.3158C21.4557 24.3816 22.4394 27.0932 21.3736 29.3724V29.3724C20.3078 31.6516 17.5961 32.6352 15.3169 31.5694L11.5076 29.7881Z" fill="#262145"/>
<rect x="0.000427246" y="24.4071" width="1.60619" height="14.8062" rx="0.803096" transform="rotate(-64.9381 0.000427246 24.4071)" fill="#262145"/>
<rect x="1.58344" y="21.0208" width="1.60619" height="14.8062" rx="0.803096" transform="rotate(-64.9381 1.58344 21.0208)" fill="#262145"/>
<rect x="3.16688" y="17.6346" width="1.60619" height="14.8062" rx="0.803096" transform="rotate(-64.9381 3.16688 17.6346)" fill="#262145"/>
<path d="M11.9853 28.5539L15.8449 20.3002L19.6542 22.0816C21.9334 23.1474 22.9171 25.859 21.8513 28.1382V28.1382C20.7855 30.4174 18.0738 31.401 15.7946 30.3352L11.9853 28.5539Z" fill="white"/>
<rect x="0.478378" y="23.1728" width="1.60619" height="14.8062" rx="0.803096" transform="rotate(-64.9381 0.478378 23.1728)" fill="white"/>
<rect x="2.06114" y="19.7866" width="1.60619" height="14.8062" rx="0.803096" transform="rotate(-64.9381 2.06114 19.7866)" fill="white"/>
<rect x="17.5367" y="27.0234" width="1.60619" height="17.7265" rx="0.803096" transform="rotate(-64.9381 17.5367 27.0234)" fill="white"/>
<rect x="3.64459" y="16.4005" width="1.60619" height="14.8062" rx="0.803096" transform="rotate(-64.9381 3.64459 16.4005)" fill="white"/>
</svg>
