<?xml version="1.0" encoding="utf-8"?>
<!-- Generator: Adobe Illustrator 24.2.3, SVG Export Plug-In . SVG Version: 6.00 Build 0)  -->
<svg version="1.1" id="Layer_1" xmlns="http://www.w3.org/2000/svg" xmlns:xlink="http://www.w3.org/1999/xlink" x="0px" y="0px"
	 viewBox="0 0 669.9 221.2" style="enable-background:new 0 0 669.9 221.2;" xml:space="preserve">
<style type="text/css">
	.st0{fill:#FFFFFF;}
	.st1{fill:#FEDA52;}
	.st2{fill:#262145;}
</style>
<path class="st0" d="M275.5,106.5c-4.5,0-7.9-1-10.3-3.1s-3.6-5.4-3.6-9.7V50.8h15v41.1c0,2.5,1.2,3.7,3.5,3.7c1,0,2.1-0.2,3.4-0.7
	l1.4,9.6C282.3,105.8,279.2,106.5,275.5,106.5z"/>
<path class="st0" d="M298.3,105.5l-9.5-54.7h14.6l2.7,19.3c0.2,1.6,0.4,3.8,0.7,6.6c0.3,2.7,0.6,5.9,0.9,9.6h0.3
	c0.9-3.7,1.6-6.9,2.3-9.6c0.7-2.8,1.3-5.1,1.8-6.9l5.4-19h9.1l5.4,19c0.5,1.8,1.1,4.1,1.8,6.9c0.7,2.7,1.4,5.9,2.3,9.6h0.3
	c0.3-3.7,0.6-6.9,0.8-9.6c0.3-2.8,0.5-5,0.8-6.6l2.8-19.3h14.5l-9.4,54.7h-14.7l-6.3-22.3c-0.7-2.6-1.2-5-1.6-7.1
	c-0.3-2.2-0.7-4.4-1-6.7h-0.4c-0.4,2.3-0.8,4.4-1.2,6.5c-0.3,2.1-0.9,4.5-1.7,7.3l-6.4,22.3H298.3z"/>
<path class="st0" d="M305.7,43.2v-6.3l10.1-4.2h10.9v-6.9h9.5v6.9h5.9v-6.9h9.4v17.4H305.7z"/>
<path class="st0" d="M333.5,20.6V2h13v18.6H333.5z"/>
<path class="st0" d="M387,106.8c-8.1,0-14.1-2-18.1-5.9c-3.9-4-5.9-9.9-5.9-17.7c0-1.3,0-2.9,0.1-4.8s0.3-3.6,0.5-5.1h24v9.5h-9.9
	v1.4c0,4,0.7,6.9,2.2,8.8c1.5,1.8,3.9,2.7,7,2.7c3.3,0,5.9-1.2,7.8-3.5c1.9-2.4,2.8-6.7,2.8-13c0-5.9-1-10.3-3.1-13.3
	s-5.9-4.5-11.4-4.5c-3,0-6.1,0.5-9.3,1.4c-3.2,0.9-5.8,2-7.9,3.1V53.5c2.1-1.1,5.1-2.1,8.8-2.8c3.8-0.8,7.5-1.2,11.2-1.2
	c6.5,0,11.6,1.2,15.6,3.6c4,2.3,6.9,5.7,8.7,10c1.9,4.3,2.8,9.4,2.8,15.4c0,9-2,16-6.1,21C402.7,104.3,396.1,106.8,387,106.8z"/>
<path class="st0" d="M443.1,106.5c-6.1,0-10.7-1.8-13.9-5.3c-3.2-3.5-4.8-8.7-4.8-15.6V50.8h15V83c0,3.7,0.7,6.3,2.2,8
	s3.6,2.5,6.4,2.5c3.5,0,6.3-1.3,8.2-4c1.9-2.7,2.9-6.9,2.9-12.6V50.8h15v54.7h-11.4l-1.6-8.4h-0.9c-1.1,2.7-3.1,4.9-5.9,6.7
	C451.6,105.6,447.8,106.5,443.1,106.5z"/>
<path class="st0" d="M504.3,106.5c-4.5,0-7.9-1-10.3-3.1s-3.6-5.4-3.6-9.7V50.8h15v41.1c0,2.5,1.2,3.7,3.5,3.7c1,0,2.1-0.2,3.4-0.7
	l1.4,9.6C511.2,105.8,508.1,106.5,504.3,106.5z M534.4,106.5c-4.5,0-7.9-1-10.3-3.1c-2.4-2.1-3.6-5.4-3.6-9.7V50.8h15v41.1
	c0,2.5,1.2,3.7,3.5,3.7c1,0,2.1-0.2,3.4-0.7l1.4,9.6C541.2,105.8,538.1,106.5,534.4,106.5z"/>
<path class="st0" d="M553.7,105.5V50.8h11l2,8.6h0.8c1.1-2.7,3.1-5,5.9-6.8c2.8-1.9,6.4-2.8,10.9-2.8c12.7,0,19.1,6.8,19.1,20.5
	v35.2h-15V73.3c0-3.7-0.8-6.4-2.3-8c-1.5-1.7-3.6-2.5-6.5-2.5c-3.5,0-6.2,1.4-8.1,4.2c-1.9,2.8-2.8,6.9-2.8,12.4v26.2h-15V105.5z"/>
<path class="st0" d="M570.9,43.3v-5c0.9-0.3,2-0.6,3.1-1.1s2.1-1.1,3-1.9s1.3-1.8,1.3-3c0-0.9-0.3-1.7-0.8-2.2s-1.2-0.8-2-0.8
	c-0.5,0-1.1,0.1-1.7,0.3c-0.6,0.2-1.1,0.4-1.6,0.6l-1.9-6.7c1.3-1.1,3-1.9,5-2.2c1.9-0.4,3.6-0.6,4.9-0.6c3,0,5.4,0.7,7.1,2.1
	c1.7,1.4,2.5,3.5,2.5,6.2c0,1.7-0.5,3.3-1.5,4.6h15.3v9.7H570.9z"/>
<path class="st0" d="M278.9,219.1c-3.9,0-7.9-0.4-11.9-1.3c-3.9-0.9-7.4-2.1-10.5-3.7l4.2-11.9c2,1.1,4.6,2.2,7.7,3.4
	c3.1,1.1,6.4,1.7,9.9,1.7c5.4,0,8.1-1.6,8.1-4.7c0-1.7-1-3.1-3.1-4c-2-1-4.8-2.1-8.4-3.4c-3.5-1.3-6.6-2.6-9.1-4.1s-4.5-3.3-5.9-5.4
	c-1.3-2.1-2-4.8-2-8c0-5.5,2-9.5,6.1-12.1s9.6-3.9,16.5-3.9c3.7,0,7.1,0.3,10.1,0.9c3,0.6,5.3,1.4,7,2.3v11.8
	c-1.7-0.8-4.2-1.6-7.3-2.3c-3.1-0.8-6.2-1.2-9.1-1.2c-5.5,0-8.3,1.4-8.3,4.2c0,1.6,1.1,2.9,3.2,3.8c2.2,0.9,5.3,2,9.2,3.3
	c5.2,1.8,9.1,4,11.9,6.5s4.2,6.1,4.2,10.8c0,3-0.7,5.8-2.1,8.5c-1.3,2.6-3.6,4.7-6.9,6.4C289.1,218.3,284.6,219.1,278.9,219.1z"/>
<path class="st0" d="M267.9,155.6v-5c0.9-0.3,2-0.6,3.1-1.1s2.1-1.1,3-1.9c0.9-0.8,1.3-1.8,1.3-3c0-0.9-0.3-1.7-0.8-2.2
	s-1.2-0.8-2-0.8c-0.5,0-1.1,0.1-1.7,0.3s-1.1,0.4-1.6,0.6l-1.9-6.7c1.3-1.1,3-1.9,5-2.2c1.9-0.4,3.6-0.6,4.9-0.6
	c3,0,5.4,0.7,7.1,2.1c1.7,1.4,2.5,3.5,2.5,6.2c0,1.7-0.5,3.3-1.5,4.6h15.3v9.7L267.9,155.6L267.9,155.6z"/>
<path class="st0" d="M326.2,217.8v-36.1c0-2.8-0.7-4.8-2-6.1s-3.4-1.9-6.3-1.9c-2.2,0-4.2,0.3-6.1,0.9c-1.8,0.6-3.5,1.3-5.1,2.2v-12
	c1.5-0.7,3.5-1.3,6.2-2s5.8-1,9.4-1c3.7,0,6.9,0.5,9.7,1.6c2.9,1.1,5.1,2.9,6.7,5.4c1.7,2.5,2.5,5.9,2.5,10.2v38.8H326.2z"/>
<path class="st0" d="M373.8,218.8c-6.1,0-10.7-1.8-13.9-5.3c-3.2-3.5-4.8-8.7-4.8-15.6v-34.8h15v32.2c0,3.7,0.7,6.3,2.2,8
	s3.6,2.5,6.4,2.5c3.5,0,6.3-1.3,8.2-4c1.9-2.7,2.9-6.9,2.9-12.6V163h15v54.7h-11.4l-1.6-8.4h-0.9c-1.1,2.7-3.1,4.9-5.9,6.7
	C382.3,217.9,378.5,218.8,373.8,218.8z"/>
<path class="st0" d="M441.4,219.1c-8.1,0-14.1-2-18.1-5.9c-3.9-4-5.9-9.9-5.9-17.7c0-1.3,0-2.9,0.1-4.8c0.1-1.9,0.3-3.6,0.5-5.1h24
	v9.5h-9.9v1.4c0,4,0.7,6.9,2.2,8.8c1.5,1.8,3.9,2.7,7,2.7c3.3,0,5.9-1.2,7.8-3.5c1.9-2.4,2.8-6.7,2.8-13c0-5.9-1-10.3-3.1-13.3
	s-5.9-4.5-11.4-4.5c-3,0-6.1,0.5-9.3,1.4c-3.2,0.9-5.8,2-7.9,3.1v-12.5c2.1-1.1,5.1-2.1,8.8-2.8c3.8-0.8,7.5-1.2,11.2-1.2
	c6.5,0,11.6,1.2,15.6,3.6c4,2.3,6.9,5.7,8.7,10c1.9,4.3,2.8,9.4,2.8,15.4c0,9.1-2,16-6.1,21C457.1,216.6,450.5,219.1,441.4,219.1z"
	/>
<path class="st0" d="M493.3,217.8v-36.1c0-2.8-0.7-4.8-2-6.1s-3.4-1.9-6.3-1.9c-2.2,0-4.2,0.3-6.1,0.9c-1.8,0.6-3.5,1.3-5.1,2.2v-12
	c1.5-0.7,3.5-1.3,6.2-2s5.8-1,9.4-1c3.7,0,6.9,0.5,9.7,1.6c2.9,1.1,5.1,2.9,6.7,5.4c1.7,2.5,2.5,5.9,2.5,10.2v38.8H493.3z"/>
<path class="st0" d="M523.1,217.8v-54.7h14.8v20.5h0.4l17-20.5h16.5v0.5l-14.5,16.1c4.7,0.7,8.3,2.7,10.7,6s3.6,7.2,3.6,11.8v20.4
	h-15v-18.1c0-3-0.7-5.3-2.2-6.8c-1.5-1.6-3.6-2.6-6.4-3l-10.1,11.2v16.7L523.1,217.8L523.1,217.8z"/>
<path class="st0" d="M598.8,217.8v-36.1c0-2.8-0.7-4.8-2-6.1s-3.4-1.9-6.3-1.9c-2.2,0-4.2,0.3-6.1,0.9c-1.8,0.6-3.5,1.3-5.1,2.2v-12
	c1.5-0.7,3.5-1.3,6.2-2s5.8-1,9.4-1c3.7,0,6.9,0.5,9.7,1.6c2.9,1.1,5.1,2.9,6.7,5.4c1.7,2.5,2.5,5.9,2.5,10.2v38.8H598.8z"/>
<path class="st0" d="M646.4,219.1c-3.9,0-7.9-0.4-11.9-1.3c-3.9-0.9-7.4-2.1-10.5-3.7l4.2-11.9c2,1.1,4.6,2.2,7.7,3.4
	c3.1,1.1,6.4,1.7,9.9,1.7c5.4,0,8.1-1.6,8.1-4.7c0-1.7-1-3.1-3.1-4c-2-1-4.8-2.1-8.4-3.4c-3.5-1.3-6.6-2.6-9.1-4.1s-4.5-3.3-5.9-5.4
	c-1.3-2.1-2-4.8-2-8c0-5.5,2-9.5,6.1-12.1s9.6-3.9,16.5-3.9c3.7,0,7.1,0.3,10.1,0.9c3,0.6,5.3,1.4,7,2.3v11.8
	c-1.7-0.8-4.2-1.6-7.3-2.3c-3.1-0.8-6.2-1.2-9.1-1.2c-5.5,0-8.3,1.4-8.3,4.2c0,1.6,1.1,2.9,3.2,3.8c2.2,0.9,5.3,2,9.2,3.3
	c5.2,1.8,9.1,4,11.9,6.5c2.8,2.5,4.2,6.1,4.2,10.8c0,3-0.7,5.8-2.1,8.5c-1.3,2.6-3.6,4.7-6.9,6.4
	C656.6,218.3,652.2,219.1,646.4,219.1z"/>
<path class="st1" d="M38.6,221.2V9.9h75.9c27.2,0,47.8,5,62,14.9c14.2,10,21.3,24.4,21.3,43.4c0,10.9-2.5,20.3-7.5,28
	s-12.4,13.4-22.2,17.1c11,2.9,19.5,8.3,25.4,16.2c5.9,7.9,8.9,17.6,8.9,29c0,20.7-6.6,36.3-19.7,46.7
	c-13.1,10.3-32.5,15.6-58.2,15.8H38.6V221.2z M89.5,98h26.6c11.1-0.1,19.1-2.1,23.8-6.1s7.1-9.8,7.1-17.6c0-8.9-2.6-15.3-7.7-19.1
	c-5.1-4-13.4-5.9-24.8-5.9h-25V98z"/>
<path class="st0" d="M38.6,125.8v3.2L17,118.9c-2.5-1.2-5.5-0.1-6.7,2.4s-0.1,5.5,2.4,6.7l25.8,12.1v14.7L7.1,140
	c-2.5-1.2-5.5-0.1-6.7,2.4s-0.1,5.5,2.4,6.7l35.7,16.7v55.4h85.8c25.7-0.2,45.1-5.5,58.2-15.8c2.7-2.1,5-4.4,7.2-7L38.6,125.8z"/>
<path class="st2" d="M22.7,106.9l74.6,34.9c2.5,1.2,5.5,0.1,6.7-2.4s0.1-5.5-2.4-6.7L26.9,97.8c-2.5-1.2-5.5-0.1-6.7,2.4
	S20.1,105.7,22.7,106.9z"/>
<path class="st0" d="M7.9,128.6L7.9,128.6c1.2-2.5,4.2-3.6,6.7-2.4l74.6,34.9c2.5,1.2,3.6,4.2,2.4,6.7l0,0c-1.2,2.5-4.2,3.6-6.7,2.4
	l-74.6-34.9C7.8,134.1,6.7,131.2,7.9,128.6z"/>
<path class="st0" d="M17.7,107.5L17.7,107.5c1.2-2.5,4.2-3.6,6.7-2.4L99,140c2.5,1.2,3.6,4.2,2.4,6.7l0,0c-1.2,2.5-4.2,3.6-6.7,2.4
	l-74.6-34.9C17.6,113,16.6,110,17.7,107.5z"/>
<path class="st2" d="M70.1,183.3l24.1-51.5l23.8,11.1c14.2,6.6,20.4,23.6,13.7,37.8c-6.6,14.2-23.6,20.4-37.8,13.7L70.1,183.3z"/>
<path class="st2" d="M0.5,145.2L0.5,145.2c1.2-2.5,4.2-3.6,6.7-2.4l74.6,34.9c2.5,1.2,3.6,4.2,2.4,6.7l0,0c-1.2,2.5-4.2,3.6-6.7,2.4
	l-74.6-35C0.4,150.7-0.7,147.7,0.5,145.2z"/>
<path class="st2" d="M10.3,124L10.3,124c1.2-2.5,4.2-3.6,6.7-2.4l74.6,34.9c2.5,1.2,3.6,4.2,2.4,6.7l0,0c-1.2,2.5-4.2,3.6-6.7,2.4
	l-74.6-34.9C10.2,129.5,9.2,126.6,10.3,124z"/>
<path class="st2" d="M20.2,102.9L20.2,102.9c1.2-2.5,4.2-3.6,6.7-2.4l74.6,34.9c2.5,1.2,3.6,4.2,2.4,6.7l0,0
	c-1.2,2.5-4.2,3.6-6.7,2.4l-74.6-34.9C20.1,108.4,19.1,105.4,20.2,102.9z"/>
<path class="st0" d="M207.6,201.7l-71.3-33.3c3.5-13.1-2.7-27.2-15.4-33.1l-23.8-11.1l-0.1,0.2L29.9,92.8c-2.5-1.2-5.5-0.1-6.7,2.4
	l0,0c-1.2,2.5-0.1,5.5,2.4,6.7l67.2,31.4l-5.6,12.1L20,113.9c-2.5-1.2-5.5-0.1-6.7,2.4s-0.1,5.5,2.4,6.7L83,154.5l-5.6,12
	l-67.3-31.4c-2.5-1.2-5.5-0.1-6.7,2.4s-0.1,5.5,2.4,6.7L80.5,179l0,0l16.4,7.7c12.6,5.9,27.4,1.7,35.2-9.3l71.3,33.3
	c2.5,1.2,5.5,0.1,6.7-2.4C211.2,205.8,210.1,202.8,207.6,201.7z"/>
</svg>
