<svg width="15" height="15" viewBox="0 0 15 15" fill="none" xmlns="http://www.w3.org/2000/svg">
<path d="M14.4846 13.3003L9.97953 8.79518C10.6786 7.89138 11.0568 6.78636 11.0568 5.6241C11.0568 4.23285 10.5138 2.92833 9.53197 1.94475C8.55011 0.961156 7.24213 0.419922 5.85261 0.419922C4.4631 0.419922 3.15512 0.962891 2.17326 1.94475C1.18967 2.9266 0.648438 4.23285 0.648438 5.6241C0.648438 7.01361 1.19141 8.3216 2.17326 9.30345C3.15512 10.287 4.46136 10.8283 5.85261 10.8283C7.01488 10.8283 8.11817 10.4501 9.02196 9.75274L13.527 14.2561C13.5402 14.2693 13.5559 14.2798 13.5732 14.2869C13.5905 14.2941 13.609 14.2978 13.6277 14.2978C13.6463 14.2978 13.6648 14.2941 13.6821 14.2869C13.6994 14.2798 13.7151 14.2693 13.7283 14.2561L14.4846 13.5015C14.4978 13.4883 14.5083 13.4726 14.5155 13.4553C14.5226 13.4381 14.5263 13.4196 14.5263 13.4009C14.5263 13.3822 14.5226 13.3637 14.5155 13.3464C14.5083 13.3292 14.4978 13.3135 14.4846 13.3003ZM8.60042 8.3719C7.8649 9.10569 6.88998 9.50988 5.85261 9.50988C4.81525 9.50988 3.84033 9.10569 3.10481 8.3719C2.37102 7.63638 1.96683 6.66146 1.96683 5.6241C1.96683 4.58673 2.37102 3.61008 3.10481 2.87629C3.84033 2.1425 4.81525 1.73831 5.85261 1.73831C6.88998 1.73831 7.86663 2.14077 8.60042 2.87629C9.33421 3.61182 9.7384 4.58673 9.7384 5.6241C9.7384 6.66146 9.33421 7.63811 8.60042 8.3719Z" fill="#062241"/>
</svg>
