<?xml version="1.0" encoding="utf-8"?>
<!-- Generator: Adobe Illustrator 24.2.3, SVG Export Plug-In . SVG Version: 6.00 Build 0)  -->
<svg version="1.1" id="Layer_1" xmlns="http://www.w3.org/2000/svg" xmlns:xlink="http://www.w3.org/1999/xlink" x="0px" y="0px"
	 viewBox="0 0 27 27" style="enable-background:new 0 0 27 27;" xml:space="preserve">
<style type="text/css">
	.st0{fill-rule:evenodd;clip-rule:evenodd;fill:#262145;}
</style>
<path class="st0" d="M17,1.5c-0.5-0.5-1-0.8-1.6-1.1S14.1,0,13.5,0c-0.6,0-1.3,0.1-1.9,0.4C11,0.6,10.5,1,10,1.5L9,2.5l-1.5,0
	c-0.7,0-1.3,0.1-1.9,0.4C5,3.1,4.4,3.5,4,4S3.1,5,2.9,5.6C2.6,6.2,2.5,6.8,2.5,7.5l0,1.5l-1.1,1c-0.5,0.5-0.8,1-1.1,1.6
	S0,12.9,0,13.5c0,0.6,0.1,1.3,0.4,1.9S1,16.5,1.5,17l1.1,1l0,1.5c0,0.7,0.1,1.3,0.4,1.9C3.1,22,3.5,22.6,4,23c0.5,0.5,1,0.8,1.6,1.1
	c0.6,0.2,1.2,0.4,1.9,0.4l1.5,0l1,1.1c0.5,0.5,1,0.8,1.6,1.1c0.6,0.3,1.2,0.4,1.9,0.4c0.6,0,1.3-0.1,1.9-0.4
	c0.6-0.3,1.1-0.6,1.6-1.1l1-1.1l1.5,0c0.7,0,1.3-0.1,1.9-0.4c0.6-0.2,1.1-0.6,1.6-1.1c0.5-0.5,0.8-1,1.1-1.6
	c0.2-0.6,0.4-1.2,0.4-1.9l0-1.5l1.1-1c0.5-0.5,0.8-1,1.1-1.6s0.4-1.2,0.4-1.9c0-0.6-0.1-1.3-0.4-1.9S26,10.5,25.5,10l-1.1-1l0-1.5
	c0-0.7-0.1-1.3-0.4-1.9C23.9,5,23.5,4.4,23,4c-0.5-0.5-1-0.8-1.6-1.1c-0.6-0.2-1.2-0.4-1.9-0.4l-1.5,0L17,1.5L17,1.5z M17.5,11.6
	c0.2-0.2,0.2-0.4,0.2-0.6c0-0.2-0.1-0.4-0.2-0.6c-0.2-0.2-0.4-0.2-0.6-0.2c-0.2,0-0.4,0.1-0.6,0.2l-4.5,4.5l-1.9-1.9
	c-0.1-0.1-0.2-0.1-0.3-0.2c-0.1,0-0.2-0.1-0.3-0.1s-0.2,0-0.3,0.1c-0.1,0-0.2,0.1-0.3,0.2c-0.1,0.1-0.1,0.2-0.2,0.3
	c0,0.1-0.1,0.2-0.1,0.3c0,0.1,0,0.2,0.1,0.3c0,0.1,0.1,0.2,0.2,0.3l2.5,2.5c0.1,0.1,0.2,0.1,0.3,0.2c0.1,0,0.2,0.1,0.3,0.1
	c0.1,0,0.2,0,0.3-0.1c0.1,0,0.2-0.1,0.3-0.2L17.5,11.6z"/>
</svg>
