<svg width="27" height="27" viewBox="0 0 27 27" fill="none" xmlns="http://www.w3.org/2000/svg">
<path fill-rule="evenodd" clip-rule="evenodd" d="M16.9867 1.46845C16.5325 1.00362 15.9899 0.634257 15.3909 0.382081C14.7919 0.129905 14.1486 0 13.4986 0C12.8487 0 12.2054 0.129905 11.6064 0.382081C11.0074 0.634257 10.4648 1.00362 10.0106 1.46845L8.96095 2.54508L7.45908 2.52652C6.80897 2.51882 6.16389 2.6412 5.56176 2.88644C4.95963 3.13169 4.41262 3.49485 3.95289 3.95458C3.49316 4.41431 3.13 4.96132 2.88475 5.56345C2.63951 6.16557 2.51714 6.81066 2.52483 7.46077L2.5417 8.96264L1.46845 10.0123C1.00362 10.4665 0.634257 11.009 0.382081 11.608C0.129905 12.207 0 12.8504 0 13.5003C0 14.1502 0.129905 14.7936 0.382081 15.3926C0.634257 15.9916 1.00362 16.5342 1.46845 16.9884L2.54339 18.038L2.52483 19.5399C2.51714 20.19 2.63951 20.8351 2.88475 21.4372C3.13 22.0393 3.49316 22.5864 3.95289 23.0461C4.41262 23.5058 4.95963 23.869 5.56176 24.1142C6.16389 24.3595 6.80897 24.4818 7.45908 24.4741L8.96095 24.4573L10.0106 25.5305C10.4648 25.9954 11.0074 26.3647 11.6064 26.6169C12.2054 26.8691 12.8487 26.999 13.4986 26.999C14.1486 26.999 14.7919 26.8691 15.3909 26.6169C15.9899 26.3647 16.5325 25.9954 16.9867 25.5305L18.0363 24.4556L19.5382 24.4741C20.1883 24.4818 20.8334 24.3595 21.4355 24.1142C22.0377 23.869 22.5847 23.5058 23.0444 23.0461C23.5041 22.5864 23.8673 22.0393 24.1125 21.4372C24.3578 20.8351 24.4801 20.19 24.4725 19.5399L24.4556 18.038L25.5288 16.9884C25.9937 16.5342 26.363 15.9916 26.6152 15.3926C26.8674 14.7936 26.9973 14.1502 26.9973 13.5003C26.9973 12.8504 26.8674 12.207 26.6152 11.608C26.363 11.009 25.9937 10.4665 25.5288 10.0123L24.4539 8.96264L24.4725 7.46077C24.4801 6.81066 24.3578 6.16557 24.1125 5.56345C23.8673 4.96132 23.5041 4.41431 23.0444 3.95458C22.5847 3.49485 22.0377 3.13169 21.4355 2.88644C20.8334 2.6412 20.1883 2.51882 19.5382 2.52652L18.0363 2.54339L16.9867 1.47014V1.46845ZM17.471 11.5665C17.6294 11.408 17.7185 11.1931 17.7185 10.9691C17.7185 10.745 17.6294 10.5301 17.471 10.3717C17.3126 10.2133 17.0977 10.1243 16.8736 10.1243C16.6496 10.1243 16.4347 10.2133 16.2763 10.3717L11.8111 14.8385L9.87727 12.903C9.79882 12.8245 9.70569 12.7623 9.60319 12.7198C9.50069 12.6774 9.39083 12.6555 9.27989 12.6555C9.16895 12.6555 9.05909 12.6774 8.95659 12.7198C8.8541 12.7623 8.76097 12.8245 8.68252 12.903C8.60407 12.9814 8.54184 13.0745 8.49938 13.177C8.45693 13.2795 8.43508 13.3894 8.43508 13.5003C8.43508 13.6113 8.45693 13.7211 8.49938 13.8236C8.54184 13.9261 8.60407 14.0193 8.68252 14.0977L11.2138 16.629C11.2921 16.7075 11.3853 16.7699 11.4878 16.8124C11.5903 16.8549 11.7002 16.8768 11.8111 16.8768C11.9221 16.8768 12.032 16.8549 12.1345 16.8124C12.237 16.7699 12.3301 16.7075 12.4085 16.629L17.471 11.5665Z" fill="#D5BD7D"/>
</svg>
