<svg width="167" height="77" viewBox="0 0 167 77" fill="none" xmlns="http://www.w3.org/2000/svg">
<circle cx="33" cy="36" r="32.5" fill="#262145" stroke="#BCAE88"/>
<rect x="87.1836" y="0.707107" width="53" height="53" rx="9.5" transform="rotate(45 87.1836 0.707107)" fill="#262145" stroke="#BCAE88"/>
<path d="M136.012 8.10683C134.657 5.81722 131.343 5.81722 129.988 8.10683L124.559 17.2786C124.046 18.1464 123.061 18.6206 122.062 18.4811L111.506 17.0071C108.871 16.6391 106.806 19.2296 107.751 21.7167L111.537 31.6797C111.895 32.6223 111.652 33.6879 110.92 34.3818L103.186 41.7155C101.255 43.5462 101.993 46.7765 104.527 47.5883L114.676 50.8401C115.637 51.1478 116.318 52.0023 116.404 53.007L117.316 63.626C117.544 66.2769 120.529 67.7145 122.743 66.2396L131.614 60.3317C132.454 59.7727 133.546 59.7727 134.386 60.3317L143.257 66.2396C145.471 67.7145 148.456 66.2769 148.684 63.626L149.596 53.007C149.682 52.0023 150.363 51.1478 151.324 50.8401L161.473 47.5883C164.007 46.7765 164.745 43.5462 162.814 41.7155L155.08 34.3818C154.348 33.6879 154.105 32.6223 154.463 31.6797L158.249 21.7167C159.194 19.2296 157.129 16.6391 154.494 17.0071L143.938 18.4811C142.939 18.6206 141.954 18.1464 141.441 17.2786L136.012 8.10683Z" fill="#262145" stroke="#BCAE88"/>
</svg>
