<svg width="531" height="294" viewBox="0 0 531 294" fill="none" xmlns="http://www.w3.org/2000/svg">
<path d="M448.601 8.44063L442.215 5.39001L443.959 12.2494L449.407 33.667C450.758 38.9803 447.533 44.4061 442.22 45.7576L365.109 65.3712C359.795 66.7227 354.369 63.4974 353.018 58.184L336.673 -6.07524C335.322 -11.3886 338.547 -16.8144 343.86 -18.1658L420.972 -37.7795C426.285 -39.1309 431.711 -35.9056 433.062 -30.5923L438.51 -9.17466L440.255 -2.31528L444.407 -8.04668L460.511 -30.2708L473.366 20.2698L448.601 8.44063Z" stroke="url(#paint0_linear)" stroke-width="6.63054"/>
<path d="M554.035 97.112L547.648 94.0614L549.393 100.921L554.84 122.338C556.192 127.652 552.967 133.078 547.653 134.429L470.542 154.043C465.229 155.394 459.803 152.169 458.452 146.855L442.107 82.5961C440.755 77.2828 443.981 71.857 449.294 70.5055L526.405 50.8919C531.719 49.5405 537.144 52.7658 538.496 58.0791L543.943 79.4967L545.688 86.3561L549.841 80.6247L565.944 58.4006L578.799 108.941L554.035 97.112Z" stroke="url(#paint1_linear)" stroke-width="6.63054"/>
<path d="M293.992 47.7658L287.605 44.7152L289.35 51.5746L294.798 72.9922C296.149 78.3055 292.924 83.7313 287.61 85.0828L210.499 104.696C205.186 106.048 199.76 102.823 198.409 97.5092L182.064 33.25C180.712 27.9366 183.938 22.5108 189.251 21.1594L266.362 1.54573C271.676 0.194261 277.101 3.4196 278.453 8.73292L283.901 30.1505L285.645 37.0099L289.798 31.2785L305.901 9.05441L318.757 59.595L293.992 47.7658Z" stroke="url(#paint2_linear)" stroke-width="6.63054"/>
<path d="M399.425 136.437L393.039 133.387L394.783 140.246L400.231 161.664C401.583 166.977 398.357 172.403 393.044 173.754L315.933 193.368C310.619 194.719 305.194 191.494 303.842 186.181L287.498 121.921C286.146 116.608 289.371 111.182 294.685 109.831L371.796 90.2171C377.109 88.8656 382.535 92.091 383.886 97.4043L389.334 118.822L391.079 125.681L395.232 119.95L411.335 97.7258L424.19 148.266L399.425 136.437Z" stroke="url(#paint3_linear)" stroke-width="6.63054"/>
<path d="M139.384 87.0915L132.998 84.0409L134.742 90.9003L140.19 112.318C141.542 117.631 138.316 123.057 133.003 124.408L55.8918 144.022C50.5785 145.374 45.1527 142.148 43.8012 136.835L27.4565 72.5756C26.105 67.2623 29.3304 61.8365 34.6437 60.485L111.755 40.8714C117.068 39.5199 122.494 42.7453 123.845 48.0586L129.293 69.4762L131.038 76.3356L135.191 70.6042L151.294 48.3801L164.149 98.9206L139.384 87.0915Z" stroke="url(#paint4_linear)" stroke-width="6.63054"/>
<path d="M244.816 175.763L238.429 172.712L240.174 179.572L245.622 200.989C246.973 206.303 243.748 211.728 238.435 213.08L161.323 232.693C156.01 234.045 150.584 230.82 149.233 225.506L132.888 161.247C131.537 155.934 134.762 150.508 140.075 149.156L217.186 129.543C222.5 128.191 227.926 131.417 229.277 136.73L234.725 158.148L236.469 165.007L240.622 159.276L256.725 137.051L269.581 187.592L244.816 175.763Z" stroke="url(#paint5_linear)" stroke-width="6.63054"/>
<defs>
<linearGradient id="paint0_linear" x1="394.451" y1="-34.4546" x2="417.333" y2="55.5084" gradientUnits="userSpaceOnUse">
<stop stop-color="#393C3F"/>
<stop offset="1" stop-color="#393C3F" stop-opacity="0"/>
</linearGradient>
<linearGradient id="paint1_linear" x1="499.884" y1="54.2168" x2="522.767" y2="144.18" gradientUnits="userSpaceOnUse">
<stop stop-color="#393C3F"/>
<stop offset="1" stop-color="#393C3F" stop-opacity="0"/>
</linearGradient>
<linearGradient id="paint2_linear" x1="239.841" y1="4.87065" x2="262.724" y2="94.8336" gradientUnits="userSpaceOnUse">
<stop stop-color="#393C3F"/>
<stop offset="1" stop-color="#393C3F" stop-opacity="0"/>
</linearGradient>
<linearGradient id="paint3_linear" x1="345.275" y1="93.542" x2="368.157" y2="183.505" gradientUnits="userSpaceOnUse">
<stop stop-color="#393C3F"/>
<stop offset="1" stop-color="#393C3F" stop-opacity="0"/>
</linearGradient>
<linearGradient id="paint4_linear" x1="85.2339" y1="44.1963" x2="108.116" y2="134.159" gradientUnits="userSpaceOnUse">
<stop stop-color="#393C3F"/>
<stop offset="1" stop-color="#393C3F" stop-opacity="0"/>
</linearGradient>
<linearGradient id="paint5_linear" x1="190.666" y1="132.868" x2="213.548" y2="222.831" gradientUnits="userSpaceOnUse">
<stop stop-color="#393C3F"/>
<stop offset="1" stop-color="#393C3F" stop-opacity="0"/>
</linearGradient>
</defs>
</svg>
